<svg id="Capa_1" data-name="Capa 1" xmlns="http://www.w3.org/2000/svg" viewBox="0 0 786.21 791.97"><defs><style>.cls-1{fill:#efecea;}.cls-2{fill:#cecece;}.cls-3{fill:#353d44;}.cls-4{fill:#fed9b7;}.cls-5{fill:#fbc4ab;}.cls-6{fill:#fff;}.cls-7{fill:#b2b1b1;}.cls-8{fill:#603f2c;}.cls-9{fill:#343a40;}.cls-10{fill:#e5c6b1;}.cls-11{fill:#968171;}.cls-12{fill:#d3b69f;}.cls-13{fill:#c9b1a1;}.cls-14{fill:#f2ccad;}.cls-15{fill:#c4ced6;}.cls-16{fill:#e2ccbc;}.cls-17{fill:#d3a492;}.cls-18{fill:#ffe2ca;}.cls-19{fill:#efccaf;}.cls-20,.cls-24{fill:none;}.cls-21{fill:#d6d5d4;}.cls-22{fill:#444e56;}.cls-23{fill:#6a7882;}.cls-24{stroke:#eab6a2;stroke-miterlimit:10;}</style></defs><path class="cls-1" d="M1355.44,676.45C1322.75,591,1197,595.73,1197,595.73l-303,27.92s-160.92,15.09-184.8,94.29-52.8,113.14-86.75,227.54L620,1069h727.55c-21.87-43.43-48.69-181.34-48.69-181.34s78.28,140.28,84,181.34h22.88V747.48C1412,719.2,1355.44,676.45,1355.44,676.45ZM854,961.7c-11-16.45-43.14,9.8-43.14,9.8-18.22,5.39,10.3-43.17,10.3-43.17,7.93-18.88-3.17-21.58-3.17-21.58,0-28.33,10.3-40.47,10.3-40.47s17.9,67.86,25.71,95.42a20.2,20.2,0,0,1,2.81,7.1C858.63,977.21,857.11,972.61,854,961.7Z" transform="translate(-620 -277.03)"/><path class="cls-2" d="M927.25,587.22S806.57,641.48,930,755.84s284.61-24.69,267-130c0,0-19.1-37-54.88-38.66S927.25,587.22,927.25,587.22Z" transform="translate(-620 -277.03)"/><path class="cls-3" d="M1002.31,932.58c12.64-6.34,20.84-63,20.84-63s11.44-6.77,10.67-4.68c-3.47,9.47-5.47,25.68-3.32,27.51s8.94,2,9.77.43.07-35.11-1.55-36.43-14.59,5.59-14.59,5.59,6.71-28-.89-35.9c-5.16-5.39-19.7-2.87-40.23,1.89s-32.66,9.54-32.66,9.54,3.57-18.73-3.73-23.8-53.9,17.77-59.1,25.4-4.1,18.61,5.55,22.71,42.43-42,47.7-40.58c7.09,1.92-5.71,22.22-5.71,22.22s-12.88,4.67-17.52,7.89-11.11,11.48-6.84,11c5.16-.59,20.72-9.15,20.72-9.15s-18.73,31.88-17.45,40,6.28,19,17.91,17.2,18.52-60.08,18.27-65.88c8.86-7.74,55.35-23.26,65.3-16.29,6.06,4.25-8.83,41.47-8.83,41.47s-10.67,6.11-18.28,6.7c-8.59.68-9.67,12-7,13.19,5.78,2.52,23.39-11.22,23.39-11.22s-13.15,30.08-15.12,35.38C987.2,920.3,994.6,936.46,1002.31,932.58Z" transform="translate(-620 -277.03)"/><path class="cls-3" d="M973.2,842.39c-6.92-2-13.93,4.66-16.58,11.48s-1.92,18.06,4.52,22.21,13.14-3.09,17.31-10.76S980.3,844.45,973.2,842.39Zm3,19c-1.08,3.67-4.26,9.13-6.77,7.87s-1-10.16-.69-13.31,2.32-10.39,6.19-9.23S977.24,857.66,976.17,861.34Z" transform="translate(-620 -277.03)"/><path class="cls-3" d="M989.58,865.89c6.43,4.16,13.14-3.09,17.31-10.76s1.85-20.86-5.25-22.93c-6.92-2-13.93,4.66-16.58,11.48S983.15,861.74,989.58,865.89Zm7.57-20.18c.33-3.15,2.33-10.38,6.19-9.23s2.35,11,1.27,14.67-4.26,9.13-6.77,7.87S996.82,848.86,997.15,845.71Z" transform="translate(-620 -277.03)"/><path class="cls-3" d="M1195.13,824.7c-2.27-2.66-4-7.82-7.18-6.31s-.74,5.15-.74,5.15-3.1,11.85-8.24,18.59-9,7.87-8.76,1.38,7.13-13.77,5.91-17.61-6.83-6-19.54,1.83c0,0-.32-2.43-2.6-1.14s-3.38,4.08-2.32,4.93c0,0-10.83,26.52-18.58,26.49s2.94-23.5,5.58-24.46,4.47,10.29-9,19.74c-.46.32-.52,2.65.34,2.15,6.35-3.73,13.32-9.23,15.49-22,1.56-9.1-12.63-7.47-18.29,1.87s-7.45,17.66-7,22.24c0,0-3.73,5.85-5.83,4.32s-4.37-8.14.78-24.67,11.08-32,8.45-35-9.28,2.07-11,6.68-7.68,43.85-7.61,48.22.69,5.9.69,5.9-4.53,7.15-8.23,5.25-1.54-9.77-.24-13.33,3.4-12-.31-13.84-12.39,3.94-13.19,4.77c0,0,8.43-27.25,8.53-32.54s-4.83-5.12-9,.17S1073,861,1072.5,871.89s1.47,9.37,2.89,8.53,5.54-21.93,6.88-25.24,4.32-10,6.61-7.23-3.54,17-2.92,20.9.73,7.63,6.94,5.72c0,0,10.7-3.84,14-9.62,0,0,9.42,3.79,13.66-5.71,0,0,1.78,5.45,8.74,4.36,10.07-1.58,17.58-10,25.67-32.52,0,0-.19-.13,1.84-1.06s4-3.11,5.4-2.09-2,6-4.51,11.7-4.17,16.92,5.09,16.71,24.58-11.14,27-24.37a31,31,0,0,0,2.24,5.38c1,1.54,7.56,16.62,6.83,19.84s-6-5.6-69.8,9c-45,10.29-64.87,23.6-64.87,23.6s4.56-37,5.59-41.33-2.92-2.8-3.34-1.49a23.09,23.09,0,0,1-2.17,3.9s-6.65-4.84-10.39-3-13.17,20.65-7.56,32.78,13.56,3.45,13.56,3.45l-2.31,9.66s-26.4,14.67-40.72,43.86-1.25,47.89,11,46c15.61-2.44,28.31-20.23,32.73-51.28s3.6-37,3.6-37,18.35-14.19,65.87-25.61c50.51-12.13,67-.67,77.9-2.61,5.16-.92,7.36-7.41,6.13-14.28C1212.43,843.44,1197.41,827.36,1195.13,824.7ZM1043.37,942.9c-6.74,12.36-15.15,29.79-21.65,22.91s-.17-21.81,3.19-29,17.84-26.49,31.52-37C1056.43,899.81,1050.1,930.54,1043.37,942.9Zm13.46-63.29c-2.18-1.05-1.71-10.88-.32-16.83s4.8-11.9,7.31-8.73l-3.45,23.46S1059,880.66,1056.83,879.61Z" transform="translate(-620 -277.03)"/><path class="cls-3" d="M1029,852.77c.91,1.72,4.52,1.58,8.07-.3s5.68-4.81,4.76-6.52-4.52-1.58-8.07.3S1028.11,851.05,1029,852.77Z" transform="translate(-620 -277.03)"/><path class="cls-3" d="M1094.77,826.27c-.48-.81,2.85-3.55,18-9.94s29.9-12.74,34.34-14.06.48,3-16.49,9.4S1095.25,827.08,1094.77,826.27Z" transform="translate(-620 -277.03)"/><path class="cls-4" d="M1070.06,755s30.17-36.75,33.94-49.32,10.06-65.37,6.29-85.48-160.92-3.78-160.92-3.78-2.09,32.3,11.53,72.72c0,0,36,61.55,34.85,71.1,0,0,34.08,46,74.31-4.27" transform="translate(-620 -277.03)"/><path class="cls-2" d="M947.72,759.11c-4.29,17.23,8.57,110,15.72,110s-5.72,15.9,11.44,86.14,24.3,26.5,22.87,5.3S982,863.8,982,863.8s-7.15-92.76-12.87-95.41S947.72,759.11,947.72,759.11Z" transform="translate(-620 -277.03)"/><path class="cls-2" d="M1133.55,755.34s13.83,115.66,11.31,123.2,1.26,61.6,3.77,64.12,8.8,79.2,5,79.2-27.65,17.6-25.14-31.43-10.06-66.63-6.29-84.23-12.57-137-3.77-143.32" transform="translate(-620 -277.03)"/><path class="cls-5" d="M1264.46,471.43" transform="translate(-620 -277.03)"/><path class="cls-5" d="M1142.09,471.94s2.14,2.43,5.92-1.35,10.07-5,11.94-3.77.63,11.32,1.88,12.57,1.26,21.38,1.26,25.15c0,6.77-4.69,22-6.28,25.14-1.26,2.51-11.13,26.4-11.23,24.51s-5.4-82.24-5.4-82.24Z" transform="translate(-620 -277.03)"/><path class="cls-5" d="M912.55,473.82s-22.86-19.57-23.19-13.28-9.13,18.85-4.1,37.71,3.81,12.78,4.42,13.93,1.87,23.52,8.15,28.68c0,0,7.54,22.76,20.12,17.73l-1.26-81.71Z" transform="translate(-620 -277.03)"/><path class="cls-4" d="M924.81,395.44c-8.76-1.25,11.27-47.42,66.34-47.42s94.86-5.53,130,42.16c0,0,13.89,19,10.14,24s11.26-1.25,8.76,33.7,7.51,64.89,5,96.09-19,61-20,62.4c-7.51,10-41.3,34.94-48.81,38.69a97.21,97.21,0,0,1-52.56,10c-28.79-2.5-85.11-44.93-90.12-61.15s-20-54.91-18.77-68.64-1.4-69.88-.07-79.24,1.32-20.6,5.08-28.08S933.57,396.69,924.81,395.44Z" transform="translate(-620 -277.03)"/><path class="cls-6" d="M987.77,455.84a10.05,10.05,0,0,1-2.7,15.37,45.43,45.43,0,0,0,19-6.27C998.27,459.75,992.77,457,987.77,455.84Z" transform="translate(-620 -277.03)"/><path class="cls-6" d="M970.12,462.42a10,10,0,0,1,1.59-5.41,30.74,30.74,0,0,0-10.39,6.67,29.58,29.58,0,0,0,12.57,6.59A10,10,0,0,1,970.12,462.42Z" transform="translate(-620 -277.03)"/><path class="cls-6" d="M1075.27,462.42a10,10,0,0,1,1.14-4.61,42.2,42.2,0,0,0-12.63,7.83,48.5,48.5,0,0,0,17.9,6.11A10.06,10.06,0,0,1,1075.27,462.42Z" transform="translate(-620 -277.03)"/><path class="cls-6" d="M1095.67,462.42a10.07,10.07,0,0,1-6.92,9.52c12.11-.85,19-7.55,19-7.55a32.05,32.05,0,0,0-13.94-7.7A9.9,9.9,0,0,1,1095.67,462.42Z" transform="translate(-620 -277.03)"/><path class="cls-7" d="M1162.53,689.09a2.74,2.74,0,0,1,4.11,3c-5.24,20.22-15.84,36.88-37.1,67-23.48,33.32-96.74,27.57-96.74,27.57s9.68-11.34,17.19-7.2c0,0,22.59-23.51,28.87-14.71,0,0,31.24-3.81,32.59-24.54,0,0,.1-25.75,5.13-22,0,0,29.44-114.81,15.35-124,0,0-.27-11.78,13.56-6.73,0,0,26.89,61.66,7.16,102.5l-5.41,6.86a.83.83,0,0,0,1.09,1.21Z" transform="translate(-620 -277.03)"/><path class="cls-7" d="M930.52,597.57S910.4,624,920.46,635.28c0,0,7.54,61.25,26.4,59.54,0,0,8.8,5.83,8.8,12.12C955.66,706.94,958.17,595.05,930.52,597.57Z" transform="translate(-620 -277.03)"/><path class="cls-3" d="M1143.61,502.65c2.51,36.46-32.69,72.92-37.09,68.46-5.53-5.59-11.07-10.7-14.82-14.06a33.9,33.9,0,0,0-11.16-6.73c-23.56-8.49-48.82-7.44-48.82-7.44s-46.52,1.26-54.06,22.63c-5.36,15.19-16.44,12.6-22.4,9.82a52.69,52.69,0,0,0-7.75-2.71c-21.45-6.07-32.71-72.48-32.71-72.48a32.62,32.62,0,0,0-.93,8.33c.93,26.87,6,64.58,9.73,72.13,4.84,9.67,27.66,49.26,45.26,59.83s54.06,24.39,67.89,20.62,47.77-15.08,60.34-25.14,39-36.46,44.15-59.79C1151.45,530.09,1143.61,502.65,1143.61,502.65Z" transform="translate(-620 -277.03)"/><path class="cls-4" d="M1054.35,605.74c15.08,17.6,39-22.63,28.91-36.46s-49-15.09-49-15.09-37.71,4.19-44,19.07-2.78,22.17,5.52,28.58c7.72,5.95,27.78,17.22,30.61-5.36,1.11-8.85,11.37-13.43,18.32-7.82l.87.74Z" transform="translate(-620 -277.03)"/><path class="cls-5" d="M1034.49,583.73c-9,.23-28.07-5.71-37-8.69a2.42,2.42,0,0,1-.53-4.4c8.6-5.19,27.87-15.16,36.89-6.4a2.63,2.63,0,0,0,3.51.15c4.23-3.55,16.33-9.75,41.45,3.49a2.43,2.43,0,0,1-.35,4.48C1068.18,575.91,1045.19,583.46,1034.49,583.73Z" transform="translate(-620 -277.03)"/><path class="cls-8" d="M1095.2,463.05a10,10,0,0,0-2.46-6.58,26.81,26.81,0,0,0-16.06,1.16,10,10,0,0,0,2.18,13.26,33.54,33.54,0,0,0,11.18.94A10,10,0,0,0,1095.2,463.05Z" transform="translate(-620 -277.03)"/><path class="cls-8" d="M989.89,462a10,10,0,0,0-1.79-5.73,27.66,27.66,0,0,0-17.19,1.12,9.92,9.92,0,0,0-1.13,4.61,10.06,10.06,0,0,0,6.32,9.33,35.92,35.92,0,0,0,7,.18A10,10,0,0,0,989.89,462Z" transform="translate(-620 -277.03)"/><path class="cls-5" d="M897.83,460.54" transform="translate(-620 -277.03)"/><path class="cls-9" d="M999,420.94a53.88,53.88,0,0,1,12.57,0c4.93.61,6.52,1.58,7.55,2.51,2.79,2.55,4.26,7.47,2.51,10.06s-6.78,2.34-20.11,0c-17.42-3.07-19.22-4.28-25.15-5-21.49-2.73-38.25,8.09-39,6.29-.29-.74,2.67-2.1,15.09-10.06,7.55-4.84,8.6-5.72,11.31-6.29,5.58-1.16,6.87,1.35,16.35,2.52A91.41,91.41,0,0,0,999,420.94Z" transform="translate(-620 -277.03)"/><path class="cls-9" d="M1092.06,431c-20.2,0-19.28-.08-20.11,0a79.91,79.91,0,0,1-16.35,0c-5.37-.54-7.14-1.28-7.54-2.51-.6-1.89,2-5,5-6.29,5-2.19,8.18,1.66,16.34,2.52,5.93.62,5.57-1.26,17.6-2.52,7.1-.74,11.8-1.19,17.6,0,7.51,1.54,15.52,5.55,15.09,7.55C1119.49,430.8,1116.91,431,1092.06,431Z" transform="translate(-620 -277.03)"/><path class="cls-10" d="M1051.2,512.08c3.9-1.09,5.44-10.93,3.78-18.86-1.09-5.18-2.55-4.85-3.78-10.05-2.15-9.21,1.92-12.38,0-20.12-1.68-6.82-7-13.3-10-12.57-2.8.68-3.18,7.53-3.77,20.11-1.2,25.38,2.68,32.05,5,35.2C1043.34,507.05,1047.79,513,1051.2,512.08Z" transform="translate(-620 -277.03)"/><path class="cls-11" d="M1021,527.17a7.83,7.83,0,0,0-5,2.51c-.71.86-1.9,2.75-1.25,3.77.77,1.22,3.73.57,6.28,0s8.86-2,8.8-3.77C1029.78,528.12,1025,526.55,1021,527.17Z" transform="translate(-620 -277.03)"/><path class="cls-11" d="M1057.49,532.19c.68-1.7-3.14-6.14-7.54-6.28-5.29-.18-9.68,5.9-8.8,7.54.29.55,1.1.45,7.54,0C1056.16,532.94,1057.2,532.93,1057.49,532.19Z" transform="translate(-620 -277.03)"/><path class="cls-4" d="M1061.26,508.31c.6-.58,3.23.95,5,2.51,5.39,4.68,6.42,12.27,5,17.6-.22.83-.65,2.51-1.26,2.52-1.11,0-1-5.71-3.77-12.57C1063.8,512.31,1060.5,509,1061.26,508.31Z" transform="translate(-620 -277.03)"/><path class="cls-12" d="M1034.85,532.19c-.75-.8,2.13-6.06,5.54-10.05,2.89-3.38,4.91-5.74,7.77-6.29,8-1.54,16.59,12.24,15.53,13.83-.69,1-5.93-2.08-6.66-2.51-4.75-2.82-5.33-5.11-7.76-5-1.83.05-2.26,1.36-6.66,5C1040,529.34,1035.6,533,1034.85,532.19Z" transform="translate(-620 -277.03)"/><path class="cls-13" d="M959.43,468.08c-.65.79,2.82,5.5,7.54,8.8a29.45,29.45,0,0,0,17.61,5c6.57-.31,11.15-2.85,15.08-5,1.1-.61,5.35-3,5-3.77-.4-1-7.42,2.36-17.6,2.51a46.65,46.65,0,0,1-16.34-2.51C963.76,470.67,960,467.34,959.43,468.08Z" transform="translate(-620 -277.03)"/><path class="cls-13" d="M1061.26,471.85c-.34,1,7.56,5.27,16.34,7.54,4.12,1.07,8.36,2.12,13.83,1.26a26.31,26.31,0,0,0,10.06-3.77,18.74,18.74,0,0,0,6.29-6.29c.58-1,1.86-3.15,1.25-3.77s-3.06,1.16-8.8,3.77a46,46,0,0,1-6.28,2.52,34.51,34.51,0,0,1-10.06,1.26c-3.4,0-6.5-.41-12.57-1.26C1063.29,472,1061.42,471.4,1061.26,471.85Z" transform="translate(-620 -277.03)"/><path class="cls-14" d="M1132.92,412.76c-7.88-19.92-23.47-32.07-27.66-35.2-12.12-9-22.66-12.56-37.71-17.6-4.85-1.62-22.85-7.44-49-10-17.85-1.79-45.9-2.72-46.52,1.25-.45,2.93,14.14,7.53,30.18,12.58,20.69,6.51,24.76,5.94,46.51,12.57,14.27,4.35,23.12,7.82,35.2,12.57,13.15,5.17,18.4,7.78,23.89,11.31a95.3,95.3,0,0,1,17.6,13.83c5.73,5.82,8.9,10.68,10,10.06S1134.47,416.68,1132.92,412.76Z" transform="translate(-620 -277.03)"/><path class="cls-14" d="M1121.61,461.79c.71,4.42,3.5,5.8,7.54,11.32,7,9.59,7.68,17.85,8.8,17.6.74-.17.55-3.81-2.52-28.92-.33-2.75-1.48-10.63-3.77-26.4-1.16-8-1.84-12.6-2.51-12.57-1.11.05,1.83,12.53-3.77,26.4C1123.16,454.71,1120.88,457.27,1121.61,461.79Z" transform="translate(-620 -277.03)"/><path class="cls-3" d="M1137.32,344.25c-8.8-23.89-28.92-28.91-28.92-28.91-1.25-3.78,7.55,2.51,7.55,2.51-20.12-27.66-60.35-33.94-60.35-33.94-3.77-2.52,13.83-2.52,13.83-2.52-3.77-3.77-44-1.26-44-1.26-10.05-10.05-56.57,7.55-56.57,7.55-3.77-2.52,12.57-8.8,12.57-8.8-39-6.29-50.28,52.8-50.28,52.8s-15.09-22.63-3.78-30.17c0,0-8.8,1.25-6.28,13.83l2.51,13.82s-11.31-30.17-7.54-44c1.26-12.57-5.93,34.86,1.26,49A46.13,46.13,0,0,1,906,297.84c-2,11.66-4.08,35.72,10.07,41.38,0,0-36.29-12.51-27.71,13.66-4.75,4.37-12.22,12.54-5,15.26,0,0-18.85,12.57-17.6,32.68,0,0,6.29,40.23,28.92,56.57h1.18c-16.41-39,20.19,17.6,20.19,17.6-5-39,6.29-50.28,6.29-50.28,15.08-13.83,3.77-26.4,3.77-26.4-1.26-41.49,49-47.77,49-47.77,59.08-10.06,104.34,11.31,104.34,11.31,37.71,7.54,55.32,60.34,55.32,60.34,7.54-5,7.54,50.29,8.8,46.52s10.05-59.09,10.05-59.09C1160,358.08,1137.32,344.25,1137.32,344.25ZM888.38,353l0,.08Zm3.26-2.9s-1.44,1.12-3.29,2.81c-.51-1.84-4.8-19.42,21.42-9.89C909.77,343,887.33,338.28,891.64,350.07Z" transform="translate(-620 -277.03)"/><path class="cls-3" d="M906,297.84c.64-3.88,1.27-6.39,1.27-6.39A36.06,36.06,0,0,0,906,297.84Z" transform="translate(-620 -277.03)"/><circle class="cls-3" cx="360.18" cy="185.39" r="4.4"/><circle class="cls-3" cx="465.78" cy="185.39" r="4.4"/><path class="cls-15" d="M974.52,458c-.59-.29-2.09.94-2.52,2.52-.5,1.85.59,3.8,1.26,3.77C974.39,464.25,975.56,458.54,974.52,458Z" transform="translate(-620 -277.03)"/><path class="cls-15" d="M1080.22,457.85c-.58-.29-2.09.94-2.51,2.52-.51,1.85.58,3.8,1.25,3.77C1080.09,464.08,1081.26,458.37,1080.22,457.85Z" transform="translate(-620 -277.03)"/><path class="cls-13" d="M1007.83,455.61a.48.48,0,0,1-.15-.2c-6.07-13.69-17.24-20-30.7-20-10.3,0-18.11,10.67-21.23,15.71-.37.6.47,1.2,1.08.78,5.16-3.57,16.69-11.19,21.38-11.19,8.67,0,9.81,0,25.78,12.58C1022,467.47,1009.1,456.67,1007.83,455.61Z" transform="translate(-620 -277.03)"/><path class="cls-16" d="M1004.69,461.52c-25.09-44.48-49,1.53-49,1.53s28.22-28.12,46.62-1.79Z" transform="translate(-620 -277.03)"/><path class="cls-13" d="M1058.75,459.28c21.37-33.94,54-5,54-5-39-39-55.91,5.86-55.91,5.86Z" transform="translate(-620 -277.03)"/><path class="cls-16" d="M1111.55,459.28s-30.13-37.39-52.15,4.56c0,0,24.81-28.38,49.79-5.16Z" transform="translate(-620 -277.03)"/><path d="M960.42,463.45c23-17.83,44.29,1.33,44.29,1.33-24.5-21.52-43.39-2.07-43.39-2.07" transform="translate(-620 -277.03)"/><path d="M1063.78,465.22" transform="translate(-620 -277.03)"/><path d="M1061.89,466.19c25.14-22.62,46.46-2.05,46.46-2.05-26.46-22.17-45.38,1.43-45.38,1.43" transform="translate(-620 -277.03)"/><path class="cls-17" d="M885.26,493.22c.61,3,1.6,3.07,3.77,7.55,4.64,9.57,4.15,17.63,5,17.6s1.75-5.7,1.26-12.58c-1-14-7.18-17.19-5-25.14,1.66-6.17,6.56-8.63,5-12.57-.88-2.26-3.61-4.35-5-3.77-.88.35-1.11,1.66-1.26,2.51a65.26,65.26,0,0,0-1.26,11.32C887.6,486.61,884.08,487.4,885.26,493.22Z" transform="translate(-620 -277.03)"/><path class="cls-17" d="M909.15,529.68a8.94,8.94,0,0,1-5-3.77c-1.81-2.76-.5-3.89-1.26-12.57-.29-3.33-.69-5.55,0-8.8a16.93,16.93,0,0,1,1.26-3.77c1.1-2.49,2.18-4.94,3.77-5,1.81-.11,3.33,2.89,3.77,3.77a13.08,13.08,0,0,1,1.26,5c.4,4.14,0,5.81,0,11.31v6.29c0,4.54,0,6.82-1.26,7.54A3.3,3.3,0,0,1,909.15,529.68Z" transform="translate(-620 -277.03)"/><path class="cls-17" d="M1158.06,470.59c-2.24,2.92-3.37,4.37-3.77,5a31.49,31.49,0,0,0-3.77,7.55c-1.31,4.34-.73,8,0,12.57a82.1,82.1,0,0,0,2.51,10.05c1.38,4.78,1.86,5.6,2.52,8.8,1,4.82.81,7.52,1.26,7.55s1-4.57,2.51-12.57c1.74-9.33,2.38-9.75,2.51-13.83.16-4.69-.68-4.27-1.25-12.57-.56-8.05-.13-13.66-1.26-13.83C1159.07,469.3,1158.88,469.54,1158.06,470.59Z" transform="translate(-620 -277.03)"/><path class="cls-17" d="M1145.49,500.77c.84-.29,2.74,2.71,3.77,5,3.37,7.56,1.24,16.31,0,16.35-.68,0-1.29-2.92-2.51-8.8C1145.86,509.07,1144.22,501.2,1145.49,500.77Z" transform="translate(-620 -277.03)"/><path class="cls-18" d="M1030.17,732.85c-92.69-53.29-80.46-110.52-80.46-110.52s75.26,47,80.21,41.28.44,70.83.44,70.83" transform="translate(-620 -277.03)"/><path class="cls-19" d="M1044.92,685.57s-5.85,6.91-7.33,3.45-2.51-25.27,3.67-21.28S1044.92,685.57,1044.92,685.57Z" transform="translate(-620 -277.03)"/><path class="cls-18" d="M1031.18,667.26s8.32,7,2.23,22.73S1031.18,667.26,1031.18,667.26Z" transform="translate(-620 -277.03)"/><path class="cls-19" d="M1037.59,701.41s30,1.76,30-4.53,0,17.6-6.29,16.35c0,0,39-15.09,32.69-25.15,0,0,12.57,6.29-1.26,17.6,0,0,32.69-56.57,11.31-61.6,0,0-48,17.61-58.58,17.61,0,0,18.36,0,17.1,3.76Z" transform="translate(-620 -277.03)"/><path class="cls-20" d="M1085,669.33" transform="translate(-620 -277.03)"/><path class="cls-19" d="M995.75,746.51s3.64-9.12,0-13.66-38.58-51.12-35.56-52.34,30.4,68,35.56,71.71S995.75,746.51,995.75,746.51Z" transform="translate(-620 -277.03)"/><path class="cls-7" d="M928,591.28s-31.43,12.57-37.71,47.77S889,707.79,903.5,716.79s37.07,54.26,116.28,65.58c0,0-94-40-120.57-89.77,0,0-5.22-52.86,5.79-62.22a34.49,34.49,0,0,0,8.79-10.67Z" transform="translate(-620 -277.03)"/><path class="cls-2" d="M941.83,988.54l65.37,28.92s-88-62.86-129.48-51.55l-6.29,3.77" transform="translate(-620 -277.03)"/><path class="cls-21" d="M689.14,816.31a143.07,143.07,0,0,1,49-22.63c34.53-8.41,73.21-3.61,74.17,3.77.66,5-15.91,13-31.42,15.09-19.89,2.66-28.37-5.68-49-6.29C721.78,806,707.16,807.47,689.14,816.31Z" transform="translate(-620 -277.03)"/><path class="cls-1" d="M1261.15,708.2c-14.45,9.23-1.23,64.11,7.54,64.11,8.47,0,22.72-51.13,6.29-62.86C1271.32,706.84,1265.27,705.57,1261.15,708.2Z" transform="translate(-620 -277.03)"/><path class="cls-21" d="M1236,815.05c-12.32,2.43,8.34,201.44,21.37,201.15,7.5-.17,17.68-66.5,3.77-132C1255.21,856.23,1241.8,813.91,1236,815.05Z" transform="translate(-620 -277.03)"/><path class="cls-21" d="M863.89,784.88c5.19-.52,8.57-25.35,5-47.77-2.57-16.2-9.89-38.34-15.09-37.71-6.39.77-9.83,35.94,0,66.63C855.73,771.94,860,785.28,863.89,784.88Z" transform="translate(-620 -277.03)"/><path class="cls-21" d="M1268.05,617.56s-36,45.28-29.65,62.93c0,0,20.58-18.81,26.06-36.41S1268.05,617.56,1268.05,617.56Z" transform="translate(-620 -277.03)"/><path class="cls-21" d="M799.16,840.2S681.6,847.74,637.6,932c0,0,157.32-103.09,137.74-45.89Z" transform="translate(-620 -277.03)"/><path class="cls-21" d="M1296.52,798.71s25.89-55.31,87.66-43.37c0,0,12.74-14.46,17.77-6.91,0,0-55,32.58-75.89,40.8Z" transform="translate(-620 -277.03)"/><path class="cls-22" d="M1059.4,310.45c-66-60.84-83.63-19-83.63-19s24.22-22,48.57,0Z" transform="translate(-620 -277.03)"/><path class="cls-1" d="M959.35,314.57" transform="translate(-620 -277.03)"/><path class="cls-22" d="M955.66,313.45s26.4,3.77,26.4,7.54l-14.46-1.65s37.69,11.1,39.27,20.84l-26.69,6.35s-6.92-26.46-39.61-33.54v-2.05s39.1-5.77,51.55-7.55" transform="translate(-620 -277.03)"/><path class="cls-22" d="M1044.92,319.74s15.08,7,17,15.44l1.89,3.41c-1.26-16.34-26.4-31.43-26.4-31.43" transform="translate(-620 -277.03)"/><path class="cls-22" d="M1078.86,401.45S1068.8,329.79,1042.4,321l-3.77,2.52s31.43,36.92,25.15,56.17" transform="translate(-620 -277.03)"/><path class="cls-1" d="M1071.32,397.68" transform="translate(-620 -277.03)"/><path class="cls-22" d="M1059.29,409.54c-6.84-129.22-66.75-94.66-66.75-94.66s46.82-5.3,49.79,41.85Z" transform="translate(-620 -277.03)"/><path class="cls-23" d="M1052.59,390.5c-5.39-102-52.7-74.75-52.7-74.75s37-4.18,39.32,33.05Z" transform="translate(-620 -277.03)"/><path class="cls-23" d="M954.47,313.91S970,316.12,970,318.34l-8.5-1s22.15,6.53,23.09,12.25l-15.7,3.74s-4.07-15.56-23.29-19.73v-1.2s23-3.39,30.31-4.44" transform="translate(-620 -277.03)"/><path class="cls-23" d="M885,371.5s-27.54,19.46-3,59.91l4.46,9S868.43,404,885,397.68Z" transform="translate(-620 -277.03)"/><path class="cls-22" d="M1135.81,390.5C1161.33,333,1075.09,319,1075.09,319s68.64,33.88,60.72,61.3S1135.81,390.5,1135.81,390.5Z" transform="translate(-620 -277.03)"/><path class="cls-24" d="M996.16,572.68a236.7,236.7,0,0,0,34.29-1c3.76-.33,7.53-.7,11.31-.82,12.74-.41,25.83,2,38-1.66" transform="translate(-620 -277.03)"/></svg>